# xmcd
#
# Track frame offsets: 
#        150
#        20601
#        36239
#        63287
#        75367
#        90213
#        98608
#        113979
#        126026
#        144395
#        162975
#
# Disc length: 2378 seconds
#
# Revision: 0
# Processed by: cddbd v1.5.2PL0 Copyright (c) Steve Scherf et al.
# Submitted via: ExactAudioCopy v1.3
#
DISCID=7d09480b
DTITLE=Michael Roach (feat. Sadie Roach) - Tryin' Times
DYEAR=2019
DGENRE=Blues
TTITLE0=Tryin' Times
TTITLE1=Take This Hammer
TTITLE2=I'm Not Stepin
TTITLE3=Casper
TTITLE4=A Vote For Me
TTITLE5=You Can't Come Round Here
TTITLE6=Hey, Mr Basketball
TTITLE7=Taking A Knee
TTITLE8=Negro
TTITLE9=A Good Time
TTITLE10=Strang Things Happening Everyday
EXTD=
EXTT0=
EXTT1=
EXTT2=
EXTT3=
EXTT4=
EXTT5=
EXTT6=
EXTT7=
EXTT8=
EXTT9=
EXTT10=
PLAYORDER=
